# AST/ASF file generated using VICON BodyLanguage
# -----------------------------------------------
:version 1.10
:name VICON
:units
  mass 1.0
  length 0.45
  angle deg
:documentation
   .ast/.asf automatically generated from VICON data using
   VICON BodyBuilder and BodyLanguage model FoxedUp or BRILLIANT.MOD
:root
   order TX TY TZ RX RY RZ
   axis XYZ
   position 0 0 0  
   orientation 0 0 0 
:bonedata
  begin
     id 1 
     name lhipjoint
     direction 0.603808 -0.713975 0.35448 
     length 2.2025 
     axis 0 0 0  XYZ
  end
  begin
     id 2 
     name lfemur
     direction 0.34202 -0.939693 0  
     length 6.55877  
     axis 0 0 20  XYZ
    dof rx ry rz
    limits (-160.0 20.0)
           (-70.0 70.0)
           (-60.0 70.0)
  end
  begin
     id 3 
     name ltibia
     direction 0.34202 -0.939693 0   
     length 6.80302   
     axis 0 0 20   XYZ
    dof rx
    limits (-10.0 170.0)
  end
  begin
     id 4 
     name lfoot
     direction 0.091848 -0.25235 0.963267   
     length 2.03446   
     axis -90 7.62852e-016 20   XYZ
    dof rx rz
    limits (-45.0 90.0)
           (-70.0 20.0)
  end
  begin
     id 5 
     name ltoes
     direction 1.53608e-011 -4.21925e-011 1   
     length 1.02033   
     axis -90 7.62852e-016 20   XYZ
    dof rx
    limits (-90.0 20.0)
  end
  begin
     id 6 
     name rhipjoint
     direction -0.587285 -0.724947 0.359928   
     length 2.16916  
     axis 0 0 0  XYZ 
  end
  begin
     id 7 
     name rfemur
     direction -0.34202 -0.939693 0   
     length 6.43173   
     axis 0 0 -20   XYZ
    dof rx ry rz
    limits (-160.0 20.0)
           (-70.0 70.0)
           (-70.0 60.0)
  end
  begin
     id 8 
     name rtibia
     direction -0.34202 -0.939693 0   
     length 6.70662   
     axis 0 0 -20   XYZ
    dof rx
    limits (-10.0 170.0)
 end
 begin
     id 9 
     name rfoot
     direction -0.11854 -0.325686 0.938018   
     length 2.0773  
     axis -90 -7.62852e-016 -20   XYZ
    dof rx rz
    limits (-45.0 90.0)
           (-20.0 70.0)
  end
  begin
     id 10 
     name rtoes
     direction -1.53547e-011 -4.21838e-011 1   
     length 1.03267   
     axis -90 -7.62852e-016 -20   XYZ
    dof rx
    limits (-90.0 20.0)
  end
  begin
     id 11 
     name lowerback
     direction -0.0286554 0.999539 0.0100613   
     length 2.08751   
     axis 0 0 0   XYZ
    dof rx ry rz
    limits (-20.0 45.0)
           (-30.0 30.0)
           (-30.0 30.0)
  end
  begin
     id 12 
     name upperback
     direction 0.0227093 0.999705 -0.00860929   
     length 2.08517   
     axis 0 0 0   XYZ
    dof rx ry rz
    limits (-20.0 45.0)
           (-30.0 30.0)
           (-30.0 30.0)
  end
  begin
     id 13 
     name thorax
     direction 0.0351627 0.999285 -0.013892   
     length 2.08412   
     axis 0 0 0   XYZ
    dof rx ry rz
    limits (-20.0 45.0)
           (-30.0 30.0)
           (-30.0 30.0)
  end
  begin
     id 14 
     name lowerneck
     direction -0.0696283 0.997344 0.0213922   
     length 1.44164   
     axis 0 0 0   XYZ
    dof rx ry rz
    limits (-20.0 45.0)
           (-30.0 30.0)
           (-30.0 30.0)
  end
  begin
     id 15 
     name upperneck
     direction 0.0531 0.990412 -0.127531   
     length 1.45022   
     axis 0 0 0   XYZ
    dof rx ry rz
    limits (-20.0 45.0)
           (-30.0 30.0)
           (-30.0 30.0)
  end
  begin
     id 16
     name head
     direction 0.0188154 0.998548 -0.0504727  
     length 1.45845  
     axis 0 0 0   XYZ
    dof rx ry rz
    limits (-20.0 45.0)
           (-30.0 30.0)
           (-30.0 30.0)
  end
  begin
     id 17 
     name lclavicle
     direction 0.961559 0.260051 0.088188  
     length 2.86057  
     axis 0 0 0   XYZ
    dof ry rz
    limits (-20.0 10.0)
           (0.0 20.0)
  end
  begin
     id 18 
     name lhumerus
     direction 1 -4.48959e-011 2.88185e-027   
     length 4.36901   
     axis 180 -30 -90   XYZ
    dof rx ry rz
    limits (-60.0 90.0)
           (-90.0 90.0)
           (-90.0 90.0)
  end
  begin
     id 19
     name lradius
     direction 1 -4.48965e-011 -3.92618e-028   
     length 3.21737   
     axis 180 -30 -90   XYZ
    dof rx
    limits (-10.0 170.0)
  end
  begin
     id 20
     name lwrist
     direction 1 -4.49037e-011 2.57246e-027   
     length 1.60869   
     axis -1.61769e-015 90 90   XYZ
    dof ry
    limits (-180.0 0.0)
 end
  begin
     id 21 
     name lhand
     direction 1 -4.48807e-011 5.12958e-027   
     length 0.564313   
     axis -3.27988e-015 90 90   XYZ
    dof rx rz
    limits (-90.0 90.0)
           (-45.0 45.0)
  end
  begin
     id 22 
     name lfingers
     direction 1 -4.48879e-011 1.02687e-026   
     length 0.454963   
     axis -6.5598e-015 90 90   XYZ
    dof rx
    limits (0.0 90.0)
  end
  begin
     id 23
     name lthumb
     direction 0.707107 -6.3475e-011 0.707107   
     length 0.653239   
     axis -90 45 2.19363e-014   XYZ
    dof rx rz
    limits (-45.0 45.0)
           (-45.0 45.0)
  end
  begin
     id 24 
     name rclavicle
     direction -0.954677 0.253915 0.155304   
     length 3.11497  
     axis 0 0 0   XYZ 
    dof ry rz
    limits (-10.0 20.0)
           (-20.0 0.0)
  end
  begin
     id 25 
     name rhumerus
     direction -1 -4.48958e-011 -8.20169e-028  
     length 4.34118   
     axis 180 30 90   XYZ
    dof rx ry rz
    limits (-90.0 60.0)
           (-90.0 90.0)
           (-90.0 90.0)
  end
  begin
     id 26 
     name rradius
     direction -1 -4.48978e-011 1.5676e-027   
     length 3.09531   
     axis 180 30 90   XYZ
    dof rx
    limits (-10.0 170.0)
  end
  begin
     id 27 
     name rwrist
     direction -1 -4.49001e-011 2.57123e-027   
     length 1.54765   
     axis -1.61769e-015 -90 -90   XYZ
    dof ry
    limits (-180.0 0.0)
  end
  begin
     id 28
     name rhand
     direction -1 -4.48847e-011 5.13225e-027   
     length 0.597446   
     axis -3.27988e-015 -90 -90   XYZ
    dof rx rz
    limits (-90.0 90.0)
           (-45.0 45.0)
  end
  begin
     id 29
     name rfingers
     direction -1 -4.49094e-011 1.02974e-026   
     length 0.481677   
     axis -6.5598e-015 -90 -90   XYZ
    dof rx
    limits (0.0 90.0)
  end
  begin
     id 30
     name rthumb
     direction -0.707107 -6.34859e-011 0.707107   
     length 0.691594   
     axis -90 -45 -2.19363e-014   XYZ
    dof rx rz
    limits (-45.0 45.0)
           (-45.0 45.0)
  end
:hierarchy
  begin
    root lhipjoint rhipjoint lowerback
    lhipjoint lfemur
    lfemur ltibia
    ltibia lfoot
    lfoot ltoes
    rhipjoint rfemur
    rfemur rtibia
    rtibia rfoot
    rfoot rtoes
    lowerback upperback
    upperback thorax
    thorax lowerneck lclavicle rclavicle
    lowerneck upperneck
    upperneck head
    lclavicle lhumerus
    lhumerus lradius
    lradius lwrist
    lwrist lhand lthumb
    lhand lfingers
    rclavicle rhumerus
    rhumerus rradius
    rradius rwrist
    rwrist rhand rthumb
    rhand rfingers
  end

#!OML:ASF E:\I on waltz\Acrobat_Osman\acrobat\cartwheel_test 2\Patient 1\Session 1\acrobat.ASF
:FULLY-SPECIFIED
:DEGREES
116
root 16.2491 13.0563 -3.11774 -332.341 -36.4802 17.0028
lowerback 27.2384 -5.84673 5.48295
upperback 4.87419 -5.92288 0.601306
thorax -10.05 -2.92574 -0.365585
lowerneck -9.99517 4.79508 -2.60888
upperneck -6.56767 6.37036 -10.8126
head -0.0899798 3.18948 -2.80655
rclavicle -3.81667e-014 3.65764e-014
rhumerus -38.1387 10.8764 -50.1568
rradius 43.9846
rwrist -7.50517
rhand -17.1124 27.2803
rfingers 7.12502
rthumb 9.12687 -2.5022
lclavicle -3.81667e-014 3.65764e-014
lhumerus -29.7787 13.9984 72.015
lradius 63.3127
lwrist 60.0017
lhand -27.4611 44.9908
lfingers 7.12502
lthumb -0.865444 74.9688
rfemur -92.7009 -18.4755 24.936
rtibia 94.3431
rfoot -26.3861 -16.8976
rtoes -17.5615
lfemur -91.2637 15.6558 -18.1208
ltibia 75.4085
lfoot 2.29743 -5.20657
ltoes -21.2771
117
root 15.9723 13.2575 -3.14606 -330.792 -32.7256 13.2927
lowerback 27.6888 -5.83067 1.1673
upperback 4.29559 -6.72212 3.68373
thorax -10.0958 -3.10334 5.86645
lowerneck -10.2693 6.75639 -9.82022
upperneck -6.76442 9.71526 -9.72108
head -0.418543 5.04745 -1.19302
rclavicle 8.66701e-014 7.55382e-015
rhumerus -32.7962 18.9306 -45.5618
rradius 43.8584
rwrist -9.58348
rhand -16.3687 25.6068
rfingers 7.12502
rthumb 9.84447 -4.14301
lclavicle 8.66701e-014 7.55382e-015
lhumerus -34.428 22.1047 72.0102
lradius 63.4479
lwrist 58.7344
lhand -26.5359 46.242
lfingers 7.12502
lthumb 0.0281535 76.2218
rfemur -87.7633 -16.3041 25.0597
rtibia 92.7118
rfoot -25.3111 -16.0584
rtoes -19.6283
lfemur -93.7432 17.5408 -23.9078
ltibia 77.6127
lfoot 1.93005 -6.26238
ltoes -24.0053
118
root 15.6673 13.4387 -3.13334 -329.474 -28.7033 10.1182
lowerback 25.7975 -2.86605 2.88302
upperback 4.83154 -2.8409 1.32782
thorax -9.01258 -1.41933 0.753374
lowerneck -10.8913 5.29091 -1.54646
upperneck -5.06397 7.16993 -10.6413
head 0.618433 3.49689 -2.85579
rclavicle -2.38542e-015 -1.86858e-014
rhumerus -39.5876 8.78699 -46.7346
rradius 43.8332
rwrist -9.39926
rhand -12.7077 24.8487
rfingers 7.12502
rthumb 13.3749 -4.70196
lclavicle -2.38542e-015 -1.86858e-014
lhumerus -30.3358 12.744 70.5197
lradius 61.677
lwrist 60.5981
lhand -26.3685 46.7315
lfingers 7.12502
lthumb 0.189809 76.7112
rfemur -83.4803 -14.1913 25.4972
rtibia 91.1531
rfoot -24.2759 -14.7975
rtoes -20.1684
lfemur -95.8613 19.2936 -29.8964
ltibia 79.0806
lfoot 1.90046 -6.46124
ltoes -24.1816
119
root 15.3389 13.6646 -3.08152 -328.401 -24.5618 7.34813
lowerback 24.4004 -1.47897 1.39561
upperback 4.48668 -1.4397 1.74284
thorax -8.61098 -0.718887 1.57087
lowerneck -10.4749 5.58301 -0.383414
upperneck -4.85161 7.45975 -10.6509
head 0.684671 3.63521 -3.05921
rclavicle 6.44062e-014 -5.24792e-014
rhumerus -40.217 8.43453 -45.9624
rradius 42.6599
rwrist -6.47304
rhand -18.0395 27.9118
rfingers 7.12502
rthumb 8.23221 -1.90782
lclavicle 6.44062e-014 -5.24792e-014
lhumerus -31.6724 12.4995 69.6717
lradius 61.3307
lwrist 62.2707
lhand -26.8775 47.2409
lfingers 7.12502
lthumb -0.30177 77.2204
rfemur -79.3121 -11.9232 26.1545
rtibia 89.3226
rfoot -23.066 -13.47
rtoes -20.1379
lfemur -96.611 20.704 -35.0671
ltibia 79.2505
lfoot 1.57696 -5.92911
ltoes -22.7614
120
root 15.0839 13.9004 -2.94107 -328.867 -19.063 5.75835
lowerback 24.0701 -1.17336 1.46893
upperback 4.19146 -0.989467 2.00528
thorax -8.77059 -0.499122 1.67598
lowerneck -10.0161 5.97016 0.247932
upperneck -4.7708 7.92492 -10.5426
head 0.682234 3.87731 -3.12328
rclavicle -2.38542e-015 -8.34896e-014
rhumerus -40.2509 8.03045 -44.9187
rradius 42.8127
rwrist -5.97079
rhand -18.137 25.6848
rfingers 7.12502
rthumb 8.13813 -4.13845
lclavicle -2.38542e-015 -8.34896e-014
lhumerus -33.1104 12.4533 69.0516
lradius 60.9071
lwrist 63.1007
lhand -27.9 48.1134
lfingers 7.12502
lthumb -1.28935 78.0892
rfemur -74.4852 -11.9123 26.5025
rtibia 87.4807
rfoot -21.1774 -11.3179
rtoes -20.6369
lfemur -94.4065 20.6802 -38.9661
ltibia 78.2238
lfoot 0.998249 -2.82864
ltoes -17.3471
121
root 14.8277 14.1116 -2.75479 -329.787 -13.0542 4.76286
lowerback 23.534 -1.04168 1.59498
upperback 3.96519 -0.751057 2.31942
thorax -8.74291 -0.379532 1.86776
lowerneck -9.71021 6.28731 0.574629
upperneck -4.55115 8.34283 -10.3494
head 0.730237 4.09028 -3.10052
rclavicle 3.65764e-014 -2.54444e-014
rhumerus -39.7237 8.00937 -43.8144
rradius 42.5429
rwrist -6.67815
rhand -17.5057 25.3911
rfingers 7.12502
rthumb 8.74738 -4.40763
lclavicle 3.65764e-014 -2.54444e-014
lhumerus -34.2646 12.0301 68.8575
lradius 60.1375
lwrist 62.9508
lhand -27.8425 48.4345
lfingers 7.12502
lthumb -1.23382 78.4106
rfemur -69.8102 -12.3213 26.6478
rtibia 85.9037
rfoot -18.6826 -9.09316
rtoes -20.6596
lfemur -89.9228 20.5636 -40.5671
ltibia 75.6549
lfoot -1.78939 -1.36763
ltoes -12.7621
122
root 14.5578 14.3383 -2.50609 -331.532 -7.39579 4.07824
lowerback 23.3342 -0.656507 1.20564
upperback 3.93443 -0.315571 2.57017
thorax -8.67715 -0.153861 2.23119
lowerneck -9.56391 6.55142 1.10956
upperneck -4.2231 8.68176 -10.492
head 0.867437 4.24816 -3.22662
rclavicle -3.89618e-014 1.59028e-015
rhumerus -39.3955 7.13205 -42.5755
rradius 42.483
rwrist -7.93707
rhand -14.9216 26.7033
rfingers 7.12502
rthumb 11.2404 -2.97561
lclavicle -3.89618e-014 1.59028e-015
lhumerus -35.2125 11.1359 68.9641
lradius 59.2117
lwrist 62.3877
lhand -27.2096 48.3099
lfingers 7.12502
lthumb -0.622557 78.2887
rfemur -64.2638 -12.0793 25.9523
rtibia 84.3828
rfoot -15.8763 -6.54249
rtoes -19.1587
lfemur -83.7525 21.1796 -40.0307
ltibia 72.2218
lfoot -5.97791 -2.30216
ltoes -9.1236
123
root 14.3348 14.4946 -2.23683 -332.494 -1.36923 4.03242
lowerback 22.4211 -0.482514 1.12941
upperback 3.44469 -0.100117 2.61035
thorax -8.74341 -0.0406062 2.24577
lowerneck -10.4877 6.68095 0.817754
upperneck -2.61333 9.02636 -9.71887
head 1.51166 4.35516 -2.84339
rclavicle 7.95139e-016 -1.90833e-014
rhumerus -40.0603 8.01778 -42.4508
rradius 42.2815
rwrist -6.1468
rhand -18.7097 26.1995
rfingers 7.12502
rthumb 7.58536 -3.64444
lclavicle 7.95139e-016 -1.90833e-014
lhumerus -36.2927 10.0586 69.0257
lradius 58.4885
lwrist 61.6003
lhand -27.1921 48.4884
lfingers 7.12502
lthumb -0.60565 78.4673
rfemur -60.5335 -11.6992 24.6942
rtibia 83.5386
rfoot -12.1875 -3.19017
rtoes -15.895
lfemur -79.0048 20.6176 -39.2883
ltibia 68.5201
lfoot -8.85439 -4.0712
ltoes -7.40822
124
root 14.112 14.611 -1.92879 -333.675 4.86036 4.21384
lowerback 21.6833 -0.24556 0.881046
upperback 3.01573 0.157044 2.62581
thorax -8.83247 0.0968874 2.32505
lowerneck -11.5378 6.86108 0.742062
upperneck -0.997568 9.4067 -9.12396
head 2.21394 4.47657 -2.55723
rclavicle 1.43125e-014 -2.94201e-014
rhumerus -40.7795 8.01598 -42.0055
rradius 42.4451
rwrist -5.64797
rhand -18.8562 26.1814
rfingers 7.12502
rthumb 7.44394 -3.66762
lclavicle 1.43125e-014 -2.94201e-014
lhumerus -37.3825 9.06136 69.0324
lradius 58.4066
lwrist 60.7843
lhand -28.516 48.7943
lfingers 7.12502
lthumb -1.8843 78.7657
rfemur -56.8005 -10.8986 23.2686
rtibia 83.1345
rfoot -8.12127 1.01715
rtoes -9.04228
lfemur -74.9312 19.9202 -38.2813
ltibia 65.7905
lfoot -9.58544 -6.00681
ltoes -4.32345
